<?xml version="1.0" encoding="utf-8"?>
<!-- Generator: Adobe Illustrator 18.1.0, SVG Export Plug-In . SVG Version: 6.00 Build 0)  -->
<svg version="1.1" xmlns="http://www.w3.org/2000/svg" xmlns:xlink="http://www.w3.org/1999/xlink" x="0px" y="0px"
	 width="195px" height="95px" viewBox="0 0 195 95" xml:space="preserve">
<g>
	<g>
		<path fill="#f70c36" d="M94.6,93.9v-6l-6.1,6H94.6z M0.5,0.5v6l6-6H0.5z M22.6,19.5l19.2-19h-8.7L22.6,11L14.4,3L0.5,16.8v8.6l13.9-13.8
			L22.6,19.5z M72.5,74.9l-19.2,19H62l10.5-10.5l8.2,7.9l13.9-13.8V69l-14,13.8L72.5,74.9z M72.4,56.1L34.3,93.9h8.7l29.5-29.3
			l8.2,7.9l14-13.9v-8.6L80.6,64L72.4,56.1z M22.7,38.3L60.9,0.5h-8.7L22.7,29.8l-8.2-7.9l-14,13.9v8.6l14-13.9L22.7,38.3z
			 M72.3,37.3L23,86.2l-8.2-7.9L0.5,92.5v1.5h7.2l7.1-7.1l7.3,7.1h1.7l48.5-48.1l8.2,7.9l14.1-14v-8.6l-14.1,14L72.3,37.3z
			 M80.3,7.6L73,0.5h-1.8L22.8,48.6l-8.2-7.9l-14.1,14v8.6l14.1-14l8.2,7.9L72.2,8.2l8.2,7.9L94.6,2V0.5h-7.2L80.3,7.6z M72.2,18.5
			L22.9,67.4l-8.2-7.9L0.5,73.6v8.6L14.7,68l8.2,7.9L72.3,27l8.2,7.9l14.2-14.1v-8.6L80.4,26.4L72.2,18.5z M174.7,37.7
			c-3-4.8-8.2-8.1-13.6-8.5c-6.8-0.5-10.8,2.3-13.7,5.2c-2.7-2.8-6.9-5.8-13.8-5.2c-3.8,0.3-7.7,2.2-10.8,5.1
			c-3.1,2.9-4.9,6.8-5.2,10.9c-0.5,7.7,3.8,12.7,6.9,16.3l0.3,0.4c6.2,7.1,13.8,14.3,20.6,20.4l2.1,1.9l3.9-3.7
			c6-5.7,12.7-12.1,18.3-18.6l0.2-0.2c2.1-2.5,4.6-5.3,5.9-8.5C178.1,47.9,177.6,42.4,174.7,37.7z M170.2,50.8
			c-0.9,2.3-2.9,4.6-4.9,6.8l-0.2,0.2c-5.4,6.2-11.6,12.2-17.7,18c-6-5.5-12.6-11.8-17.9-18l-0.3-0.4c-2.9-3.3-5.8-6.7-5.5-11.9
			c0.2-3.3,1.9-5.6,3.3-7c2-1.9,4.6-3.2,7-3.4c0.5,0,0.9-0.1,1.3-0.1c4.3,0,6.6,2,9.4,5.7l2.3,3l2.8-3.2c2.8-3.2,5.2-5.8,10.7-5.4
			c3.4,0.3,6.9,2.5,8.9,5.6C171.3,43.9,171.6,47.5,170.2,50.8z M100.4,94.2c0.1,0.1,0.2,0.2,0.2,0.2h8.6c-3-3-6-6.1-8.8-9.3V94.2z
			 M194.1,94.5c0.1-0.1,0.3-0.3,0.4-0.4V85c-2.9,3.3-5.9,6.5-8.9,9.5H194.1z M100.4,1.1C100.4,1.1,100.4,1.1,100.4,1.1l0,7.9
			c3.5-3.1,7.4-5.8,11.5-7.9H100.4z M194.3,1.1h-11.5C187,3.2,191,6,194.5,9.2V1.2C194.4,1.2,194.3,1.1,194.3,1.1z M185.5,75.1
			c-6.1,7-12.9,13.6-19,19.4h8.8c4.9-4.7,10-9.9,14.8-15.4l0.2-0.2c1.2-1.4,2.7-3.1,4.2-5.1V61.8c-2.6,5.8-6.3,10.1-8.8,13.1
			L185.5,75.1z M109.3,75.2l-0.3-0.4c-2.1-2.5-5.9-6.8-8.6-12.8v12c1.5,2,2.9,3.6,3.9,4.8l0.3,0.4c4.6,5.3,9.8,10.5,14.9,15.3h8.9
			C122.1,88.6,115.2,82,109.3,75.2z M163.1,2.7c-1.2-0.1-2.4-0.1-3.7-0.1c-4.2,0-8.2,0.5-12,1.6c-3.8-1.1-7.9-1.7-12-1.7
			c-1.4,0-2.8,0.1-4.2,0.2c-9.8,0.9-19.6,5.4-26.9,12.4c-1.4,1.4-2.8,2.8-4,4.3V31c2-4.3,4.7-8.2,8.2-11.5
			c6.3-6.1,14.8-10,23.2-10.7c1.2-0.1,2.4-0.2,3.6-0.2c3.8,0,7.6,0.6,11.1,1.6l0.9,0.3l0.9-0.3c3.5-1.1,7.2-1.6,11.1-1.6
			c1.1,0,2.1,0,3.2,0.1c11.8,0.9,23.1,7.9,29.5,18.2c0.9,1.4,1.6,2.9,2.3,4.4V19.6C186.8,10,175.2,3.6,163.1,2.7z M179.9,70.5
			l0.2-0.3c2.7-3.1,5.9-6.9,8.1-12.1c3.8-9.1,3-19.1-2.2-27.5c-5.2-8.4-14.4-14-23.9-14.8c-0.9-0.1-1.8-0.1-2.6-0.1
			c-4.3,0-8.3,0.8-12,2.5c-3.7-1.6-7.7-2.5-12-2.5c-1,0-2,0-3,0.1c-6.8,0.6-13.7,3.8-18.8,8.7c-5.5,5.2-8.8,12.2-9.3,19.6
			c-0.9,13.1,6.6,21.7,10.1,25.8l0.3,0.4c6.6,7.6,14.7,15.2,21.7,21.6l2.7,2.4h17l4.6-4.4C166.9,84.2,173.9,77.5,179.9,70.5z
			 M156.5,85.7l-8.8,8.4l-7.1-6.5c-6.9-6.3-14.8-13.6-21.2-21l-0.3-0.4c-3.5-4-9.4-10.8-8.7-21.5c0.4-5.9,3-11.5,7.4-15.6
			c4.2-4,9.7-6.6,15.1-7c0.8-0.1,1.6-0.1,2.5-0.1c3.8,0,7.4,0.8,10.6,2.5l1.4,0.7l1.4-0.7c3.2-1.6,6.7-2.5,10.6-2.5
			c0.7,0,1.4,0,2.2,0.1c7.6,0.6,15,5.1,19.2,11.9c4.1,6.7,4.8,14.7,1.8,22c-1.8,4.3-4.7,7.7-7.1,10.4l-0.2,0.2
			C169.4,73.3,162.5,79.9,156.5,85.7z" />
	</g>
</g>
</svg>
